<?xml version="1.0" encoding="UTF-8"?>
<svg version="1.1" xmlns="http://www.w3.org/2000/svg" width="886" height="540">
<path d="M0 0 C292.38 0 584.76 0 886 0 C886 178.2 886 356.4 886 540 C593.62 540 301.24 540 0 540 C0 361.8 0 183.6 0 0 Z " fill="#F60C0B" transform="translate(0,0)"/>
<path d="M0 0 C292.38 0 584.76 0 886 0 C886 178.2 886 356.4 886 540 C593.62 540 301.24 540 0 540 C0 361.8 0 183.6 0 0 Z M155 5 C153.47806669 5.20098174 151.95609214 5.40165139 150.43408203 5.60205078 C119.03390813 9.79484496 83.93311613 15.20439615 57 33 C56.24731901 33.44815168 55.49463802 33.89630335 54.71914852 34.35803539 C50.57190352 37.30538176 48.33087703 39.56442465 47.16740441 44.61238039 C46.72832846 49.26811698 46.81855644 53.92399944 46.88406372 58.5945282 C46.87655512 60.40867638 46.86510863 62.22281182 46.85007083 64.03691322 C46.82026667 69.01505442 46.84655425 73.99155697 46.88211417 78.96960223 C46.91070534 84.34049136 46.88739454 89.71118821 46.87060547 95.08209229 C46.84599574 105.59997879 46.86950873 116.11723485 46.90941931 126.63505324 C46.95419132 138.87882239 46.95234305 151.1224506 46.94876824 163.36628482 C46.94407666 185.20761942 46.98322793 207.04865839 47.04638672 228.88989258 C47.10767561 250.09373486 47.13598411 271.2972898 47.12841797 292.5012207 C47.11894197 319.26656346 47.13793023 346.03173258 47.1810802 372.79704201 C47.19401968 381.33632254 47.19680377 389.8755726 47.19626236 398.41486168 C47.19618729 408.81572168 47.21475483 419.21635934 47.25687434 429.61713704 C47.27800107 434.92612132 47.29116947 440.23480584 47.28284836 445.54383278 C47.27550503 450.40015716 47.29113293 455.25583562 47.32542001 460.11203954 C47.3338088 461.87228846 47.33372074 463.63260156 47.32447506 465.39284619 C47.31321124 467.77969852 47.332485 470.16440233 47.35962105 472.55108166 C47.34905861 473.23996746 47.33849617 473.92885326 47.32761365 474.63861439 C47.40829259 478.44219885 47.96688954 479.95869768 50.38011158 482.96897537 C52.78473233 485.2731354 52.78473233 485.2731354 55.55859375 484.9453125 C57.85693672 484.0553941 59.91774913 483.0856818 62.0625 481.875 C85.42771174 470.02209375 113.18409301 465.13933391 139 462 C140.00825333 461.87577667 141.01650665 461.75155334 142.05531311 461.62356567 C161.90808299 459.24172048 181.44325263 458.53907557 201.41782379 458.67338562 C203.73059603 458.687768 206.0433363 458.69684337 208.35614014 458.70446777 C229.58555389 458.77816167 250.73887133 459.02369058 271.90509033 460.8293457 C274.13745573 461.01119734 276.37059701 461.17112948 278.60498047 461.32617188 C340.66794311 465.64476295 402.29785998 477.70234512 463.33300781 489.28466797 C523.45480547 500.6889235 583.86512811 511.43191984 644.96240234 515.85211182 C646.92064021 515.99424009 648.8783069 516.14417249 650.8359375 516.29443359 C665.40418892 517.31661198 680.02054781 517.22254601 694.6171875 517.24023438 C697.68436751 517.24459277 700.75126208 517.25840904 703.81835938 517.28125 C723.44125351 517.42440143 742.59034186 516.67822663 762.09162903 514.34243774 C764.64678197 514.04158864 767.20118292 513.77188152 769.76220703 513.52709961 C782.09339409 512.34757264 794.02998518 509.0706034 806 506 C806.83885742 505.78972168 807.67771484 505.57944336 808.54199219 505.36279297 C836.69973314 498.56779093 836.69973314 498.56779093 860.63928068 483.34085447 C862.49206852 480.15349127 862.41923482 477.27145458 862.38869667 473.68695354 C862.39425538 472.94492767 862.39981409 472.20290179 862.40554124 471.43839028 C862.42056614 468.93807055 862.41413591 466.43826255 862.40786743 463.93791199 C862.41418524 462.1327812 862.42179905 460.32765457 862.43060148 458.52253419 C862.45094892 453.55116022 862.4524267 448.5799302 862.45081019 443.60852134 C862.45225184 438.25118836 862.47082737 432.89391063 862.48706055 427.53660583 C862.51921282 415.81773628 862.52899714 404.09891066 862.53470278 392.38000274 C862.53845046 385.06577642 862.5472551 377.75156189 862.55720139 370.43734169 C862.58414461 350.1948419 862.60665131 329.95235352 862.60907936 309.7098341 C862.60923493 308.41392179 862.60939051 307.11800948 862.6095508 305.7828271 C862.60984185 303.15558676 862.61012723 300.52834642 862.61040695 297.90110608 C862.61062123 295.944801 862.61062123 295.944801 862.61083984 293.94897461 C862.61097951 292.64318352 862.61111918 291.33739243 862.61126308 289.99203191 C862.61439947 268.82551688 862.65099869 247.65920633 862.7024761 226.49275883 C862.75488001 204.77261795 862.78119273 183.05257813 862.78063047 161.33237249 C862.7808834 149.13270501 862.79218382 136.93327254 862.83180618 124.73366356 C862.86536799 114.34704206 862.87492409 103.96074709 862.85304923 93.5740883 C862.84259024 88.27283478 862.84351539 82.97222126 862.87481308 77.67103577 C862.90317802 72.81925147 862.89932587 67.9686062 862.8696541 63.11683957 C862.86460583 61.36044575 862.87142528 59.60397001 862.89121862 57.84768047 C863.27227333 48.74322865 863.27227333 48.74322865 860.38408923 40.37485754 C858.67408342 38.64095249 857.07247505 37.26758006 855 36 C850.04761609 37.59183769 845.1659904 39.30019529 840.30493164 41.15429688 C797.98112331 57.28531471 752.85310154 61.44009234 707.875 61.25 C706.58428589 61.24723053 705.29357178 61.24446106 703.96374512 61.24160767 C684.56050979 61.19287616 665.32828005 60.77138221 646 59 C644.71432129 58.8875293 643.42864258 58.77505859 642.10400391 58.65917969 C633.05923014 57.86580024 624.02880288 56.95927158 615 56 C613.9382959 55.89075195 612.8765918 55.78150391 611.78271484 55.66894531 C597.25985114 54.15880911 582.91170286 51.90982053 568.54589844 49.33276367 C560.97922187 47.98268923 553.40867324 46.75311755 545.80023193 45.65931702 C529.61521696 43.3320326 513.55045775 40.48231076 497.4744873 37.5123291 C493.99789424 36.87094124 490.52040478 36.23445502 487.04296875 35.59765625 C482.19122508 34.70875389 477.33973789 33.81847616 472.48859024 32.92632675 C453.66926052 29.46565258 434.84884784 26.0063986 416.00048828 22.70703125 C412.04701763 22.0121476 408.09797758 21.29352295 404.14889526 20.57417297 C374.95693162 15.24507857 374.95693162 15.24507857 345.5546875 11.29882812 C340.23658941 10.67675702 334.94254286 9.8736923 329.64648438 9.08862305 C327.09909625 8.71477519 324.55006121 8.35517041 322 8 C320.93048096 7.84821289 319.86096191 7.69642578 318.7590332 7.54003906 C265.48606669 0.3990976 208.2986218 -2.31369326 155 5 Z " fill="#FDFDFD" transform="translate(0,0)"/>
<path d="M0 0 C46 7 46 7 68 11 C75.97700156 12.37195165 83.95563018 13.73218241 91.93701172 15.078125 C94.5675908 15.52221767 97.19786441 15.968088 99.828125 16.4140625 C100.6043219 16.54430817 101.3805188 16.67455383 102.18023682 16.80874634 C107.81645612 17.76493804 113.38751769 18.87750354 119 20 C119 56.96 119 93.92 119 132 C124.94 132.66 130.88 133.32 137 134 C140.41465914 134.56377573 143.79389922 135.15388143 147.1875 135.8125 C172.00398589 140.31638384 197.14603468 142.96495793 222.25 145.25 C223.15422699 145.33290283 224.05845398 145.41580566 224.99008179 145.5012207 C227.62316675 145.74035992 230.25672507 145.97314881 232.890625 146.203125 C233.63119644 146.26957214 234.37176788 146.33601929 235.13478088 146.40447998 C244.08392719 147.16385429 253.01752397 147.5272381 262 148 C262 185.95 262 223.9 262 263 C236.64907958 263 236.64907958 263 227.515625 262.1171875 C226.46169052 262.02256729 225.40775604 261.92794708 224.32188416 261.83045959 C220.96333205 261.52404379 217.6066993 261.20104332 214.25 260.875 C212.50367783 260.70993454 212.50367783 260.70993454 210.72207642 260.54153442 C179.91780893 257.61834858 149.56071073 252.88971372 119 248 C119 287.6 119 327.2 119 368 C113 368 113 368 111 367 C108.08895077 366.55197029 105.18106222 366.14443187 102.26171875 365.7578125 C89.37321888 363.98195229 76.56322201 361.77841907 63.74536133 359.55615234 C60.41849419 358.97995523 57.09096422 358.40795364 53.76299 357.83820915 C50.55630988 357.28842057 47.35045815 356.73384868 44.14453125 356.1796875 C42.95205276 355.97552216 41.75957428 355.77135681 40.53096008 355.56100464 C39.43768906 355.37055573 38.34441803 355.18010681 37.21801758 354.98388672 C35.77414421 354.73431717 35.77414421 354.73431717 34.30110168 354.47970581 C32 354 32 354 30 353 C28.51502054 352.73637605 27.02244492 352.51473448 25.52734375 352.31640625 C24.17672852 352.13174805 24.17672852 352.13174805 22.79882812 351.94335938 C20.91865465 351.69309738 19.03844731 351.44308963 17.15820312 351.19335938 C15.79405273 351.00676758 15.79405273 351.00676758 14.40234375 350.81640625 C13.58241943 350.70756104 12.76249512 350.59871582 11.91772461 350.48657227 C7.91488092 349.81904089 3.96148637 348.8803303 0 348 C0 308.4 0 268.8 0 228 C-2.64 227.67 -5.28 227.34 -8 227 C-10.16706776 226.71395996 -12.3337464 226.42495441 -14.5 226.1328125 C-30.32321791 224.00589929 -46.14716154 221.89614911 -62 220 C-62.99918457 219.8777002 -63.99836914 219.75540039 -65.02783203 219.62939453 C-88.32095933 216.80898595 -111.53510744 215.56432617 -135 214 C-135 176.71 -135 139.42 -135 101 C-95.97397029 101 -95.97397029 101 -88 103 C-85.07101414 103.29854627 -82.14893972 103.56216297 -79.21484375 103.796875 C-77.40204836 103.94942472 -75.58930631 104.10260942 -73.77661133 104.25634766 C-72.8238028 104.33653137 -71.87099426 104.41671509 -70.88931274 104.49932861 C-55.30534578 105.82273729 -39.79125182 107.37085188 -24.3125 109.625 C-23.23088089 109.78107727 -23.23088089 109.78107727 -22.12741089 109.94030762 C-14.66414501 111.02619364 -7.37845661 112.36034298 0 114 C0 76.38 0 38.76 0 0 Z " fill="#FBF9F9" transform="translate(391,59)"/>
<path d="M0 0 C0.33 0 0.66 0 1 0 C1.11576726 12.57804744 1.20465137 25.15596848 1.25906086 37.73443985 C1.28517265 43.57494146 1.32060035 49.41507902 1.37719727 55.25537109 C1.43145944 60.88989599 1.46140861 66.52407038 1.47438622 72.15883636 C1.48363643 74.31030548 1.50169976 76.46175506 1.52865028 78.61307526 C1.56486291 81.62300819 1.56994852 84.63148642 1.56762695 87.64160156 C1.58560333 88.5342421 1.60357971 89.42688263 1.62210083 90.34657288 C1.57151463 96.393903 1.57151463 96.393903 -1.32575989 99.4664917 C-21.46285417 111.01384718 -42.46475241 117.70594242 -65 123 C-66.10915771 123.26216309 -67.21831543 123.52432617 -68.36108398 123.79443359 C-76.68095948 125.67538716 -84.97817064 126.90541259 -93.44116211 127.88037109 C-95.56520488 128.12531192 -97.68787308 128.38020966 -99.81054688 128.63671875 C-113.38977956 130.24892373 -126.80859946 131.1607531 -140.4921875 131.16796875 C-141.96876046 131.17119995 -143.44533314 131.17456524 -144.92190552 131.17805481 C-148.00963069 131.18400313 -151.0973281 131.18589973 -154.18505859 131.18530273 C-157.27952025 131.18522236 -160.37383106 131.19202781 -163.46826172 131.20581055 C-249.95876853 131.58492485 -335.80077066 115.53285061 -420.375 98.8125 C-447.92547855 93.37019858 -475.61078672 89.01512207 -503.375 84.8125 C-504.48862915 84.64387451 -505.6022583 84.47524902 -506.74963379 84.30151367 C-514.16363048 83.18164415 -521.5805457 82.08308809 -529 81 C-529.94572876 80.86062012 -530.89145752 80.72124023 -531.86584473 80.57763672 C-545.19932785 78.62465537 -558.52688179 77.19722042 -571.95898438 76.11962891 C-574.99937025 75.87505066 -578.03872754 75.61982203 -581.078125 75.36328125 C-604.36377563 73.42868275 -627.56279539 72.78848016 -650.91894531 72.75976562 C-653.95878184 72.75539502 -656.99833232 72.74152153 -660.03808594 72.71875 C-680.58017989 72.56812825 -700.59301077 73.46815155 -721 76 C-721.94814072 76.11553223 -722.89628143 76.23106445 -723.87315369 76.35009766 C-750.03261253 79.57662592 -778.57779483 84.8640924 -801.6875 98.03125 C-804 99 -804 99 -806.125 98.84375 C-808.46919459 97.78886244 -809.55485129 97.16101184 -811 95 C-811.29296875 91.64453125 -811.29296875 91.64453125 -811.1875 87.8125 C-811.16042969 86.54019531 -811.13335938 85.26789063 -811.10546875 83.95703125 C-811.07066406 82.98121094 -811.03585937 82.00539063 -811 81 C-810.67 81.99 -810.34 82.98 -810 84 C-809.030625 83.49210937 -808.06125 82.98421875 -807.0625 82.4609375 C-791.08935244 74.2107605 -774.0184138 66.93054434 -756 65 C-755.08105957 64.69304199 -754.16211914 64.38608398 -753.21533203 64.06982422 C-740.70724001 59.90805814 -727.17779895 59.18206015 -714.12841797 58.11962891 C-711.13562815 57.87586566 -708.14399282 57.62063268 -705.15234375 57.36328125 C-687.45807024 55.86020469 -669.82457178 54.76330104 -652.0625 54.75 C-651.22795288 54.74932526 -650.39340576 54.74865051 -649.53356934 54.74795532 C-611.19733019 54.79579737 -572.98793312 58.00867482 -535 63 C-533.96404694 63.13516022 -532.92809387 63.27032043 -531.86074829 63.40957642 C-512.71239749 65.92573724 -493.65386781 68.89867562 -474.60083008 72.04418945 C-471.50513403 72.55514608 -468.40881094 73.06197194 -465.31176758 73.56469727 C-447.91469622 76.38899364 -430.57773346 79.40411753 -413.28751755 82.82438087 C-392.93256016 86.84745815 -372.50322366 90.44220062 -352.0625 94 C-351.05856579 94.17490463 -350.05463158 94.34980927 -349.02027512 94.53001404 C-293.59469913 104.17733467 -237.39937095 113.43741662 -181 114 C-179.66077484 114.01483429 -179.66077484 114.01483429 -178.29449463 114.02996826 C-171.73171821 114.10017912 -165.16911519 114.14650594 -158.60601807 114.17321777 C-156.36735818 114.18257067 -154.12870705 114.19443776 -151.89007568 114.20910645 C-137.46862983 114.29129543 -123.32004065 113.74379336 -109 112 C-107.89689987 111.86614395 -107.89689987 111.86614395 -106.77151489 111.72958374 C-101.98346701 111.13517857 -97.20904348 110.46415785 -92.4375 109.75 C-91.72109344 109.64328979 -91.00468689 109.53657959 -90.26657104 109.42663574 C-61.6717759 105.1299739 -32.55375892 99.55637116 -6.94140625 85.53125 C-4 84 -4 84 0 83 C0 55.61 0 28.22 0 0 Z " fill="#B90403" transform="translate(860,386)"/>
<path d="M0 0 C2.31277223 0.01438238 4.62551251 0.02345775 6.93831635 0.03108215 C28.1677301 0.10477605 49.32104753 0.35030496 70.48726654 2.15596008 C72.71963194 2.33781172 74.95277322 2.49774386 77.18715668 2.65278625 C139.25011932 6.97137733 200.88003619 19.0289595 261.91518402 30.61128235 C322.03698168 42.01553788 382.44730432 52.75853422 443.54457855 57.1787262 C445.50281642 57.32085447 447.46048311 57.47078687 449.41811371 57.62104797 C463.98636513 58.64322636 478.60272402 58.54916039 493.19936371 58.56684875 C496.26654372 58.57120715 499.33343829 58.58502342 502.40053558 58.60786438 C522.02342972 58.75101581 541.17251807 58.00484101 560.67380524 55.66905212 C563.22895818 55.36820302 565.78335913 55.0984959 568.34438324 54.85371399 C580.6755703 53.67418702 592.61216139 50.39721778 604.58217621 47.32661438 C605.84046234 47.0111969 605.84046234 47.0111969 607.1241684 46.68940735 C624.95940387 42.19876322 641.92448084 36.06108855 657.58217621 26.32661438 C658.24217621 25.99661438 658.90217621 25.66661438 659.58217621 25.32661438 C660.93207577 39.35890364 660.93207577 39.35890364 658.10561371 43.47895813 C655.68297517 45.11673437 653.28489111 46.20650526 650.58217621 47.32661438 C649.51483246 47.87059875 648.44748871 48.41458313 647.34780121 48.97505188 C628.24885293 58.66856836 607.09306867 64.50617723 586.14467621 68.45161438 C584.85496918 68.70298157 583.56526215 68.95434875 582.23647308 69.21333313 C570.57864517 71.44332325 558.88789837 73.31700521 547.01967621 73.88911438 C541.88468547 74.13626645 541.88468547 74.13626645 536.80046844 74.83093262 C533.33379585 75.36486995 530.03814873 75.4753594 526.53090668 75.50361633 C525.84883557 75.5100884 525.16676447 75.51656046 524.46402454 75.52322865 C522.20913999 75.54264359 519.95430618 75.55434684 517.69936371 75.56489563 C516.91648798 75.56969814 516.13361225 75.57450066 515.32701302 75.5794487 C509.37040767 75.61560857 503.4138792 75.63099253 497.45717621 75.63911438 C496.58509647 75.64070683 495.71301674 75.64229927 494.81451035 75.64393997 C468.04817717 75.68558092 441.60349576 75.04507271 415.01958466 71.63743591 C412.38092091 71.30095004 409.74090152 70.97694425 407.10048676 70.65449524 C391.39111713 68.72753549 375.70114968 66.65552653 360.01967621 64.51411438 C358.74769379 64.34053406 357.47571136 64.16695374 356.16518402 63.9881134 C339.35463997 61.68093907 322.71487746 59.07871291 306.10170746 55.63130188 C299.35839546 54.23919942 292.5812992 53.19710239 285.76967621 52.20161438 C277.16032047 50.93928923 268.72227103 49.40428565 260.26576996 47.35395813 C253.92313472 45.8892519 247.48681156 44.87295037 241.07500458 43.76170349 C236.62941683 42.98578693 232.18813334 42.18584955 227.74623871 41.38911438 C225.8374069 41.04784344 223.92855248 40.70669901 222.01967621 40.36567688 C219.11552743 39.84679969 216.21148057 39.32738711 213.30776215 38.80610657 C202.67780362 36.89853375 192.04642078 35.0466028 181.37258148 33.40045166 C177.03328799 32.72760281 172.71020404 32.00039781 168.39138031 31.20697021 C157.13483559 29.14128876 145.807913 27.70525881 134.45717621 26.26411438 C131.4535278 25.87877631 128.45002366 25.49232744 125.44652557 25.1058197 C123.50267248 24.85619519 121.5586836 24.60762568 119.61455536 24.3601532 C115.51022998 23.83711537 111.40751039 23.30904169 107.31020355 22.73335266 C99.03193832 21.57583039 90.80005689 20.8260773 82.45717621 20.32661438 C80.1210455 20.18390956 77.78510954 20.03798609 75.44936371 19.88911438 C74.19035248 19.80887024 72.93134125 19.7286261 71.63417816 19.64595032 C68.87532969 19.44803393 66.14034878 19.16676988 63.39540863 18.82759094 C46.17989515 16.77246793 28.9093131 17.02197557 11.59951019 17.06587219 C7.06029297 17.07725734 2.52131058 17.07051109 -2.01789856 17.05897999 C-20.24141254 17.01979411 -38.30506281 17.05623044 -56.41782379 19.32661438 C-57.70479156 19.47179504 -58.99175934 19.61697571 -60.31772614 19.76655579 C-85.89846455 22.72160551 -112.88026405 27.13462911 -136.23813629 38.37348938 C-138.41782379 39.32661438 -138.41782379 39.32661438 -140.41782379 39.32661438 C-140.77589671 37.66645813 -141.13396962 36.00630188 -141.49204254 34.34614563 C-142.84950075 31.38493933 -145.06259772 29.52964491 -147.41782379 27.32661438 C-121.36741534 13.13690514 -91.66972158 6.8837807 -62.41782379 3.32661438 C-61.40957047 3.20239105 -60.40131714 3.07816772 -59.36251068 2.95018005 C-39.5097408 0.56833486 -19.97457116 -0.13431005 0 0 Z " fill="#F3E8E8" transform="translate(201.4178237915039,457.6733856201172)"/>
<path d="M0 0 C2.7120029 0.2756462 5.06390924 0.67313755 7.6875 1.3125 C8.38939453 1.46912109 9.09128906 1.62574219 9.81445312 1.78710938 C11.54651361 2.17593928 13.27379116 2.58596467 15 3 C15 3.33 15 3.66 15 4 C9.06 3.67 3.12 3.34 -3 3 C-2.01 2.01 -1.02 1.02 0 0 Z " fill="#FB3D3E" transform="translate(319,161)"/>
<path d="M0 0 C9.41002278 -0.18451025 9.41002278 -0.18451025 14 1 C14 1.33 14 1.66 14 2 C8.51053913 3.12029814 5.16569441 2.79217969 0 1 C0 0.67 0 0.34 0 0 Z " fill="#FD2425" transform="translate(601,55)"/>
</svg>
