<?xml version="1.0" encoding="UTF-8"?>
<svg version="1.1" xmlns="http://www.w3.org/2000/svg" width="1536" height="1024">
<path d="M0 0 C506.88 0 1013.76 0 1536 0 C1536 337.92 1536 675.84 1536 1024 C1029.12 1024 522.24 1024 0 1024 C0 686.08 0 348.16 0 0 Z " fill="#FDFDFD" transform="translate(0,0)"/>
<path d="M0 0 C4.63609715 0.27556803 9.2737949 0.49711125 13.91308594 0.7109375 C36.6905077 1.78707875 59.37082515 3.77701175 82.06866455 5.92974854 C85.31076441 6.23641673 88.55306407 6.54081137 91.79547596 6.84415436 C125.15357392 9.96527074 158.49325788 13.13440544 191.73803711 17.31982422 C201.51939563 18.54999672 211.29349362 19.65615843 221.11090088 20.55867004 C228.7696616 21.2654791 236.40689251 22.11147341 244.04370117 23.0234375 C246.16582171 23.27655939 248.28843362 23.52521962 250.41113281 23.7734375 C256.74626732 24.52024673 263.06815223 25.31179217 269.37792969 26.25390625 C278.03793255 27.51499422 286.73721705 28.37810776 295.44082642 29.275177 C311.12372705 30.89361102 326.78973932 32.60625593 342.4392395 34.52108765 C361.33915502 36.83164717 380.25579047 38.756682 399.21678162 40.48948669 C406.24679873 41.1335358 413.27352826 41.80863976 420.29980469 42.4921875 C449.874731 45.36150181 479.45705364 47.95041126 509.0993042 50.01763916 C512.79725904 50.28019026 516.49408355 50.55563938 520.19091797 50.83349609 C558.89513548 53.71403001 597.45269699 54.63613411 636.26464844 54.5859375 C637.9339743 54.58425316 637.9339743 54.58425316 639.63702393 54.58253479 C647.09762714 54.57351782 654.55803778 54.5479446 662.01855469 54.51171875 C663.46409823 54.50631923 663.46409823 54.50631923 664.93884468 54.50081062 C674.30420327 54.46103524 683.59354456 54.3426812 692.92903137 53.51228333 C697.11075956 53.15211522 701.29333138 53.01463628 705.48730469 52.87890625 C707.31431996 52.81274272 709.14130464 52.74573013 710.96826172 52.67797852 C712.38464935 52.62566574 712.38464935 52.62566574 713.82965088 52.57229614 C731.03765821 51.919396 748.17768744 50.90434527 765.32714844 49.3359375 C766.65711349 49.2168251 766.65711349 49.2168251 768.01394653 49.0953064 C779.82081202 48.02583347 791.49896651 46.48071622 803.21051025 44.65383911 C807.350542 44.02177513 811.49876441 43.45082017 815.64746094 42.87890625 C881.35118235 36.33511682 881.35118235 36.33511682 943.70214844 17.2734375 C947.62574945 16.7502907 949.16938156 16.86740896 952.36221641 19.30070978 C955.26198999 22.98467888 955.40152891 25.7141752 955.32856083 30.21208096 C955.33552844 31.00958823 955.34249604 31.8070955 955.34967479 32.62876967 C955.36697633 35.31211595 955.3485239 37.99402941 955.33033752 40.67735291 C955.33538061 42.61605488 955.34260758 44.55475221 955.35183567 46.49343878 C955.37081886 51.82945389 955.35848991 57.16501266 955.34111273 62.5010165 C955.32777404 68.25231498 955.34316329 74.00354514 955.35493469 79.75483704 C955.37334213 91.02528031 955.36477806 102.29555054 955.34684647 113.56598847 C955.3328369 122.7239167 955.32892413 131.88179787 955.33228874 141.03973579 C955.33300491 142.99275079 955.33300491 142.99275079 955.33373554 144.98522063 C955.33476184 147.63000858 955.3358172 150.27479653 955.3369013 152.91958446 C955.34573391 177.02944795 955.32705654 201.13922191 955.29637107 225.24906377 C955.268513 247.26267369 955.26354499 269.27617316 955.27856445 291.28979492 C955.28238683 296.92604281 955.28618161 302.56229071 955.28973484 308.19853878 C955.29017265 308.89240709 955.29061047 309.5862754 955.29106155 310.30117002 C955.3022996 328.68970702 955.29488088 347.07823483 955.28185409 365.46676928 C955.28000966 368.10228733 955.27817493 370.73780538 955.27635002 373.37332344 C955.27543793 374.67013605 955.27452584 375.96694867 955.27358611 377.30305864 C955.26797456 386.45198214 955.27129369 395.60087773 955.27789497 404.74979973 C955.28561821 415.89651311 955.27891205 427.04310769 955.25371993 438.1897971 C955.24120113 443.87960818 955.23510724 449.56923409 955.2462616 455.25905228 C955.25627394 460.46454472 955.24790845 465.66966723 955.22468042 470.87511451 C955.21950461 472.76132496 955.22111252 474.64756833 955.23007507 476.53376459 C955.24122514 479.09260674 955.22788506 481.65018825 955.20830631 484.2089529 C955.21738513 484.94580394 955.22646395 485.68265498 955.23581788 486.44183484 C955.16010945 491.49807225 953.87244591 494.37223236 950.70214844 498.2734375 C948.64819336 499.62011719 948.64819336 499.62011719 946.49511719 500.4453125 C945.70411621 500.75791016 944.91311523 501.07050781 944.09814453 501.39257812 C943.30746582 501.68326172 942.51678711 501.97394531 941.70214844 502.2734375 C940.65341553 502.68625977 940.65341553 502.68625977 939.58349609 503.10742188 C905.50641911 516.31918699 868.34953251 523.0538864 832.37353516 528.84228516 C829.59686268 529.29043025 826.82356098 529.75683099 824.04980469 530.22265625 C788.21705766 536.11521751 752.14453983 539.1384496 715.92871094 541.4765625 C714.39296921 541.57623322 714.39296921 541.57623322 712.82620239 541.67791748 C709.45213744 541.88935946 706.07755696 542.08458164 702.70214844 542.2734375 C701.9530571 542.31600489 701.20396576 542.35857227 700.43217468 542.40242958 C686.85398283 543.15989497 673.31554408 543.43625871 659.71777344 543.44140625 C657.64556864 543.44464055 655.57336405 543.44800599 653.50115967 543.45149231 C649.17150346 543.45743205 644.84186702 543.4593382 640.51220703 543.45874023 C636.18892133 543.45865999 631.86574391 543.46544627 627.54248047 543.47924805 C583.67366212 543.61666485 540.01341559 542.09131359 496.2832489 538.59395599 C492.89242223 538.32402839 489.50110114 538.06057263 486.10980225 537.79665565 C453.72551822 535.2735875 421.38706469 532.49806952 389.12451172 528.70263672 C379.86796945 527.61564944 370.60679276 526.64707537 361.32714844 525.7734375 C346.26712721 524.35532524 331.23194612 522.74055892 316.19598389 521.08947754 C311.64703814 520.59108919 307.09719705 520.10217517 302.54638672 519.62109375 C289.61716503 518.25221813 276.69564026 516.82911101 263.78027344 515.3359375 C263.05480001 515.25217865 262.32932659 515.1684198 261.58186913 515.0821228 C254.88269018 514.30864816 248.18366913 513.53383207 241.48535156 512.75292969 C221.70014272 510.44792314 201.91062252 508.39332161 182.07385254 506.58612061 C175.42508258 505.9695309 168.78533879 505.26909191 162.14520264 504.56665039 C129.76576149 501.16028019 97.37968672 498.28082949 64.88964844 496.1484375 C63.67162537 496.06803223 62.45360229 495.98762695 61.19866943 495.90478516 C53.72788467 495.41526992 46.25577568 494.955139 38.78182983 494.51657104 C35.99978153 494.35250693 33.21837492 494.18040442 30.43716431 494.00271606 C3.44365756 492.28711154 -23.49430362 491.92846477 -50.53833008 491.95776367 C-55.16082496 491.96239299 -59.78305652 491.95545645 -64.40551758 491.93725586 C-125.48328484 491.69927328 -191.86920125 493.01714984 -250.75097656 511.1796875 C-253.6073929 512.06052073 -256.46402008 512.88456999 -259.34472656 513.6796875 C-267.26110162 515.87275167 -275.05815309 518.04810467 -282.67285156 521.1484375 C-287.17262879 522.94951414 -290.48248719 524.21557401 -295.29785156 523.2734375 C-297.96271669 520.8097799 -298.29386455 519.31156677 -298.67504972 515.66615063 C-298.69144565 514.17924733 -298.69121699 512.69210707 -298.6781683 511.20517063 C-298.68282822 510.38150363 -298.68748813 509.55783662 -298.69228926 508.70921001 C-298.70430214 505.93118895 -298.69481969 503.15365131 -298.68553162 500.37562561 C-298.68970178 498.37108083 -298.69517754 496.36653841 -298.70185143 494.36200041 C-298.7163664 488.83947931 -298.71204247 483.31710668 -298.70468462 477.79457724 C-298.69997017 471.8442433 -298.71244746 465.89394229 -298.72270203 459.94361877 C-298.73893263 448.95571045 -298.7413283 437.9678447 -298.73639703 426.97992784 C-298.73184368 416.82933441 -298.73243425 406.67875867 -298.73823738 396.52816582 C-298.73899424 395.16772139 -298.73975022 393.80727695 -298.74050533 392.44683252 C-298.74165049 390.39688247 -298.74280037 388.34693242 -298.74396457 386.29698237 C-298.75467313 367.23277978 -298.75939116 348.1685831 -298.75149441 329.1043787 C-298.75119723 328.38539877 -298.75090006 327.66641884 -298.75059388 326.92565164 C-298.74814483 321.08665133 -298.7455333 315.24765108 -298.74290975 309.40865085 C-298.73280634 286.62990916 -298.74116305 263.85124118 -298.7644043 241.07250977 C-298.79046179 215.49206792 -298.80332889 189.91167046 -298.79621655 164.33121485 C-298.79550046 161.60498489 -298.79482608 158.87875492 -298.7941761 156.15252495 C-298.79400629 155.48123693 -298.79383648 154.80994891 -298.79366153 154.11831884 C-298.79135612 143.97387752 -298.79934703 133.82947733 -298.81246758 123.68504524 C-298.82735803 112.15145572 -298.8278744 100.61796109 -298.81039666 89.08437306 C-298.80185327 83.19621142 -298.79981829 77.30823437 -298.81504822 71.42008209 C-298.82880612 66.03451107 -298.82424752 60.64928433 -298.80480898 55.26373368 C-298.80102118 53.31088456 -298.8040501 51.35800845 -298.81442063 49.4051832 C-298.82747936 46.75888354 -298.81610731 44.11379189 -298.79842281 41.46754551 C-298.80807333 40.70211208 -298.81772384 39.93667866 -298.82766679 39.14805028 C-298.77776758 35.53338372 -298.4117673 33.45318962 -296.45919281 30.37214559 C-293.75911693 27.75031477 -290.9165225 26.31505111 -287.48535156 24.8984375 C-286.79449463 24.60662598 -286.1036377 24.31481445 -285.3918457 24.01416016 C-262.21554661 14.54917534 -237.646128 10.01208796 -213.04785156 6.0859375 C-212.25877411 5.95919647 -211.46969666 5.83245544 -210.65670776 5.70187378 C-199.6692977 3.94986402 -188.67941759 2.55736461 -177.60406494 1.49533081 C-175.40273061 1.28352848 -173.20263977 1.06137764 -171.00244141 0.83813477 C-114.66452583 -4.72162325 -56.45343803 -3.3652736 0 0 Z " fill="#F31714" transform="translate(439.2978515625,215.7265625)"/>
<path d="M0 0 C17.82 1.485 17.82 1.485 36 3 C44.10162082 3.4365269 44.10162082 3.4365269 52.20703125 3.7890625 C55.86021137 3.99222597 59.38097911 4.47837576 63 5 C65.71010476 5.1717672 68.41287526 5.3181021 71.125 5.4375 C78.66097255 5.81293271 86.14801482 6.4460052 93.6550293 7.19677734 C101.97764072 8.02164366 110.31064749 8.67957347 118.65063477 9.30249023 C119.65151123 9.37927002 120.6523877 9.4560498 121.68359375 9.53515625 C122.56587646 9.600979 123.44815918 9.66680176 124.35717773 9.73461914 C127.25426234 10.02553193 130.12796211 10.52132702 133 11 C133 49.28 133 87.56 133 127 C140.59 127.33 148.18 127.66 156 128 C160.52660022 128.30672569 165.04220172 128.62775712 169.5625 129 C177.78999722 129.64612618 186.00346077 130.17812568 194.25 130.5 C201.63110258 130.78934994 208.95832784 131.30898297 216.3125 132 C224.13180968 132.73306028 231.89949803 133.18591426 239.75 133.4375 C255.86259993 134.12152547 271.9318052 135.62272616 288 137 C288 175.94 288 214.88 288 255 C266.18316231 255 244.81643038 253.81640809 223.10913086 252.1607666 C215.7607378 251.60064195 208.41197179 251.04580228 201.0625 250.5 C200.19587738 250.43558716 199.32925476 250.37117432 198.43637085 250.30480957 C184.19372949 249.25211199 169.94653586 248.37728221 155.68383789 247.64648438 C154.62440224 247.59133163 154.62440224 247.59133163 153.54356384 247.5350647 C151.66342934 247.43774274 149.7831367 247.34348875 147.90283203 247.24951172 C142.92794749 246.93146268 137.96456822 246.45132438 133 246 C133 286.59 133 327.18 133 369 C122.91803624 369 113.39036932 368.71723772 103.4375 367.6875 C88.01588445 366.16967998 72.57740567 365.12168309 57.11108398 364.1784668 C38.05117812 362.99707836 19.05089993 361.46545384 0 360 C0 318.42 0 276.84 0 234 C-5.28 234 -10.56 234 -16 234 C-20.74053917 233.75716039 -25.45640921 233.47897329 -30.1875 233.125 C-31.32251953 233.04636719 -32.45753906 232.96773437 -33.62695312 232.88671875 C-39.87108931 232.43898698 -46.09785757 231.90076238 -52.32710266 231.28353882 C-63.68836709 230.1599038 -75.05017241 229.35626394 -86.44628906 228.68109131 C-91.68340505 228.37051961 -96.91975446 228.04739534 -102.15625 227.7265625 C-103.18073242 227.66413361 -104.20521484 227.60170471 -105.26074219 227.53738403 C-113.84263114 227.01355602 -122.42212683 226.46078382 -131 225.875 C-132.69479492 225.76188477 -132.69479492 225.76188477 -134.42382812 225.64648438 C-135.45958984 225.57494141 -136.49535156 225.50339844 -137.5625 225.4296875 C-138.43003906 225.37022949 -139.29757812 225.31077148 -140.19140625 225.24951172 C-143.80403761 224.92857037 -147.40114771 224.44985654 -151 224 C-151 184.73 -151 145.46 -151 105 C-124.28626344 106.27208269 -124.28626344 106.27208269 -113.67578125 106.87109375 C-112.58912894 106.93243909 -112.58912894 106.93243909 -111.48052406 106.99502373 C-93.53970098 108.01926995 -75.63050943 109.42736528 -57.71850586 110.8604126 C-52.59703331 111.26933503 -47.47514906 111.6730651 -42.3533144 112.07742214 C-38.37818836 112.39131347 -34.40312513 112.70592323 -30.42826843 113.02320862 C-28.98627914 113.13797324 -27.54428802 113.25271485 -26.10229492 113.36743164 C-25.41580966 113.42235307 -24.7293244 113.47727449 -24.02203655 113.53386021 C-20.67410869 113.79919234 -17.32588342 114.04947948 -13.97476196 114.27023315 C-12.72536835 114.35306549 -11.47597473 114.43589783 -10.1887207 114.52124023 C-9.08897415 114.59036118 -7.9892276 114.65948212 -6.8561554 114.73069763 C-4 115 -4 115 0 116 C0 77.72 0 39.44 0 0 Z " fill="#FBF9FA" transform="translate(685,301)"/>
<path d="M0 0 C3.58581396 0.00541959 7.17162135 0.00780165 10.75743866 0.00987244 C43.66223484 0.03949138 76.4194595 0.42991142 109.24724579 2.85594177 C114.92844846 3.27568641 120.6120314 3.64352949 126.29747772 4.00068665 C155.18981269 5.81625186 183.96296028 8.27786433 212.73552704 11.46595764 C221.45563244 12.42604213 230.18711115 13.24887295 238.92162323 14.06535339 C271.07861085 17.09000969 303.17059465 20.58769073 335.24929047 24.34605408 C343.63538887 25.32655021 352.02569572 26.25296915 360.42302704 27.1325531 C368.50674098 27.98066237 376.58597862 28.86513931 384.66472626 29.75926208 C388.33514853 30.16421423 392.00559629 30.56893481 395.67604828 30.97361755 C398.08276481 31.23961792 400.48936597 31.50666473 402.89583588 31.77488708 C416.04118792 33.23934682 429.17935898 34.57647189 442.36438751 35.62931824 C450.28739731 36.26887763 458.15463262 37.15357891 466.04363251 38.13035583 C491.49894028 41.17045636 517.05946719 43.21861435 542.60613251 45.31785583 C543.78028717 45.41451538 544.95444183 45.51117493 546.16417694 45.61076355 C553.05674011 46.17563311 559.95037582 46.72410545 566.84572601 47.25389099 C568.92717484 47.41442656 571.00843623 47.5774242 573.08943939 47.74363708 C612.56806576 50.87607792 652.17486409 51.70349945 691.76277924 51.63530731 C694.98319026 51.63025455 698.20358896 51.62880723 701.4240036 51.62785339 C731.42533493 51.60892906 761.29632378 51.21199547 791.21257782 48.7509613 C795.10596457 48.4307225 799.00032983 48.14983083 802.89812469 47.88865662 C818.38036258 46.83791475 833.75844057 45.28902744 849.15984344 43.39598083 C852.86745383 42.94146796 856.57647709 42.50016795 860.28582001 42.06004333 C875.15465319 40.27032141 889.88484617 38.06474653 904.60613251 35.31785583 C906.16519627 35.03129808 907.72427749 34.74483531 909.2833786 34.45848083 C913.58276917 33.66265272 917.87680537 32.84094892 922.16863251 32.00535583 C922.92284485 31.85856384 923.67705719 31.71177185 924.45412445 31.56053162 C951.57122587 26.25910911 978.23065812 19.90432843 1004.29363251 10.63035583 C1005.47058685 10.22043396 1005.47058685 10.22043396 1006.67131805 9.80223083 C1010.84614687 8.26538155 1013.69559288 6.84275739 1016.60613251 3.31785583 C1018.51443278 5.22615611 1017.82428597 8.46559473 1017.85613251 11.00535583 C1017.88191376 12.22609802 1017.90769501 13.44684021 1017.93425751 14.70457458 C1017.56873233 18.72970301 1016.84214864 20.95913412 1014.60613251 24.31785583 C1010.07711274 28.06508052 1005.11884332 29.7913962 999.60613251 31.56785583 C998.70459442 31.86232605 997.80305634 32.15679626 996.87419891 32.46018982 C969.00173228 41.36603321 940.37985264 47.52666678 911.66863251 53.00535583 C910.91419861 53.15006317 910.15976471 53.29477051 909.38246918 53.44386292 C888.85525977 57.36436236 868.25206435 60.05211442 847.48113251 62.31785583 C846.28839722 62.44825256 845.09566193 62.57864929 843.86678314 62.71299744 C836.79289292 63.48423743 829.71780176 64.24355648 822.641716 64.99436951 C819.99999592 65.27588386 817.35886567 65.56212909 814.71794891 65.85105896 C718.29638982 76.32129079 618.49616304 71.33144275 522.16751862 62.03388977 C514.41172278 61.28881477 506.64960475 60.63661296 498.88457489 59.99647522 C473.82738318 57.91808194 448.85010468 55.14271777 423.86785126 52.31785583 C423.08021267 52.22884695 422.29257408 52.13983807 421.48106766 52.04813194 C413.45385125 51.14093118 405.42683124 50.23211746 397.40082073 49.31430244 C394.3500062 48.96578911 391.29898471 48.61911035 388.24792671 48.2727356 C386.82273695 48.11047597 385.3976419 47.94738164 383.97265434 47.78335571 C376.08700925 46.8759022 368.2188791 46.08505346 360.29682159 45.57424927 C357.94557681 45.35020119 355.87890121 44.92298053 353.60613251 44.31785583 C350.84029676 43.99799973 348.08074329 43.70999462 345.30925751 43.45066833 C343.62346077 43.28723447 341.93766999 43.12373923 340.25188446 42.96018982 C339.37102173 42.87582672 338.490159 42.79146362 337.58260345 42.70454407 C324.53828406 41.45254287 311.51204889 40.15162294 298.51888275 38.4390564 C291.08530601 37.47357667 283.64147934 36.66684985 276.18425751 35.90769958 C274.92400253 35.77842072 273.66374756 35.64914185 272.36530304 35.51594543 C268.44577339 35.11465253 264.52600795 34.7157559 260.60613251 34.31785583 C259.41136292 34.19655304 258.21659332 34.07525024 256.98561859 33.95027161 C246.02348642 32.83926077 235.06017652 31.74025301 224.09539032 30.65574646 C222.07723875 30.45602662 220.05908953 30.25628316 218.04094315 30.05651093 C216.69735685 29.92354568 215.35376198 29.79066694 214.01015854 29.65787506 C206.47145701 28.91228651 198.9355345 28.14772706 191.40351105 27.33743286 C177.15372661 25.80586479 162.89029463 24.48595227 148.60613251 23.31785583 C147.83616943 23.25487053 147.06620636 23.19188522 146.27291107 23.12699127 C57.03552151 15.86665852 -33.21182481 12.70092826 -122.39386749 22.31785583 C-123.42207611 22.42631836 -124.45028473 22.53478088 -125.50965118 22.64653015 C-146.01687297 24.81672763 -166.2621283 27.78678918 -186.39386749 32.31785583 C-187.72401997 32.61350128 -189.05426634 32.9087245 -190.38459015 33.20359802 C-205.05843686 36.40124106 -205.05843686 36.40124106 -219.66217804 39.89378357 C-222.90689742 40.68838072 -226.09082823 40.8051895 -229.39386749 40.31785583 C-231.89386749 38.63035583 -231.89386749 38.63035583 -233.39386749 36.31785583 C-233.64386749 33.56785583 -233.64386749 33.56785583 -233.39386749 31.31785583 C-232.28785187 31.39391052 -231.18183624 31.46996521 -230.04230499 31.54832458 C-224.57167875 31.54231819 -220.04532536 29.62355284 -215.01886749 27.63035583 C-191.28967444 18.65089033 -166.30449398 13.02284211 -141.16779327 9.69187927 C-138.01995868 9.26743968 -134.87711109 8.81302472 -131.73371124 8.35691833 C-87.75469534 2.0327077 -44.36774903 -0.0696864 0 0 Z " fill="#EDEAEB" transform="translate(376.3938674926758,706.6821441650391)"/>
<path d="M0 0 C0.804375 0.144375 1.60875 0.28875 2.4375 0.4375 C6.98347725 1.15528588 11.40862545 1.08166476 16 1 C16 1.66 16 2.32 16 3 C16.99 3.33 17.98 3.66 19 4 C16.22829605 3.88613541 13.45821954 3.75939222 10.6875 3.625 C9.90181641 3.5940625 9.11613281 3.563125 8.30664062 3.53125 C7.54931641 3.49257813 6.79199219 3.45390625 6.01171875 3.4140625 C5.31522217 3.3826416 4.61872559 3.3512207 3.90112305 3.31884766 C2 3 2 3 -1 1 C-0.67 0.67 -0.34 0.34 0 0 Z " fill="#CB3131" transform="translate(860,745)"/>
<path d="M0 0 C1.07765625 0.10183594 2.1553125 0.20367188 3.265625 0.30859375 C4.08546875 0.39238281 4.9053125 0.47617187 5.75 0.5625 C5.75 0.8925 5.75 1.2225 5.75 1.5625 C-3.655 2.0575 -3.655 2.0575 -13.25 2.5625 C-8.57770959 -0.55236027 -5.54891101 -0.54282825 0 0 Z " fill="#D03938" transform="translate(322.25,706.4375)"/>
<path d="M0 0 C5.94 0.33 11.88 0.66 18 1 C18 1.33 18 1.66 18 2 C15.56305726 2.24878997 13.12761611 2.47463404 10.6875 2.6875 C9.65206055 2.79674805 9.65206055 2.79674805 8.59570312 2.90820312 C6.57421875 3.07421875 6.57421875 3.07421875 3 3 C2.01 2.01 1.02 1.02 0 0 Z " fill="#DFA8A6" transform="translate(541,714)"/>
<path d="M0 0 C3.63 0.33 7.26 0.66 11 1 C11 1.33 11 1.66 11 2 C5.06 2.495 5.06 2.495 -1 3 C-0.67 2.01 -0.34 1.02 0 0 Z " fill="#C93231" transform="translate(235,714)"/>
</svg>
